<?xml version="1.0" encoding="iso-8859-1"?>
<!-- Uploaded to: SVG Repo, www.svgrepo.com, Generator: SVG Repo Mixer Tools -->
<svg height="800px" width="800px" version="1.1" id="Layer_1" xmlns="http://www.w3.org/2000/svg" xmlns:xlink="http://www.w3.org/1999/xlink" 
	 viewBox="0 0 511.999 511.999" xml:space="preserve">
<g>
	<path style="fill:#D69EF0;" d="M241.126,144.464c-0.995,0-1.917-0.297-2.712-0.784l-65.735,60.12
		c-2.308,2.112-3.622,5.083-3.622,8.195l45.011,14.65l41.931-38.349v-43.832h-14.873V144.464z"/>
	<path style="fill:#D69EF0;" d="M169.058,365.724c0,3.082,1.287,6.027,3.556,8.134l75.687,70.336
		c2.164,2.011,4.931,3.018,7.697,3.018v-57.015l-41.929-38.965L169.058,365.724z"/>
	<polygon style="fill:#D69EF0;" points="297.928,226.646 297.928,351.234 342.94,365.724 342.94,211.995 	"/>
</g>
<g>
	<path style="fill:#BC81E2;" d="M339.317,203.8l-65.734-60.119c-0.794,0.487-1.717,0.784-2.71,0.784h-14.874v43.832l41.929,38.349
		l45.012-14.65C342.94,208.884,341.623,205.912,339.317,203.8z"/>
	<path style="fill:#BC81E2;" d="M255.999,390.199v57.015c2.766,0,5.533-1.006,7.697-3.018l75.688-70.336
		c2.27-2.108,3.557-5.052,3.557-8.134l-45.012-14.491L255.999,390.199z"/>
	<polygon style="fill:#BC81E2;" points="169.058,365.724 214.069,351.075 214.069,226.487 169.058,211.995 	"/>
</g>
<path style="opacity:0.1;enable-background:new    ;" d="M199.575,365.724V211.995c0-3.112,1.312-6.083,3.622-8.195l64.877-59.336
	h-26.948c-0.995,0-1.917-0.297-2.712-0.784L172.68,203.8c-2.309,2.112-3.622,5.083-3.622,8.195v153.729
	c0,3.082,1.287,6.027,3.555,8.134l75.688,70.336c2.164,2.011,4.93,3.018,7.697,3.018c2.766,0,5.533-1.006,7.697-3.018l7.561-7.027
	l-68.126-63.309C200.862,371.752,199.575,368.808,199.575,365.724z"/>
<polygon style="fill:#8F5DAF;" points="214.069,351.234 214.069,226.646 255.999,188.297 297.928,226.646 297.928,351.234 
	255.999,390.199 "/>
<polygon style="opacity:0.1;enable-background:new    ;" points="246.596,351.234 246.596,226.646 272.261,203.171 255.999,188.297 
	214.069,226.646 214.069,351.234 255.999,390.199 272.261,375.085 "/>
<g>
	<path style="fill:#FFC753;" d="M350.083,504.163c-2.769,0-5.196-1.832-5.931-4.474c-5.849-20.996-9.592-24.702-30.773-30.499
		c-2.67-0.73-4.52-3.135-4.52-5.876c0-2.743,1.852-5.147,4.52-5.878c21.181-5.798,24.925-9.501,30.773-30.498
		c0.735-2.645,3.161-4.474,5.931-4.474c2.768,0,5.194,1.83,5.931,4.474c5.851,20.997,9.588,24.7,30.775,30.498
		c2.668,0.73,4.512,3.135,4.512,5.878c0,2.742-1.845,5.146-4.512,5.876c-21.187,5.797-24.924,9.503-30.775,30.499
		C355.276,502.331,352.85,504.163,350.083,504.163z"/>
	<path style="fill:#FFC753;" d="M126.805,445.925c-2.415,0-4.529-1.597-5.168-3.9c-5.097-18.299-8.359-21.528-26.82-26.58
		c-2.326-0.637-3.938-2.733-3.938-5.123c0-2.391,1.612-4.486,3.938-5.122c18.461-5.053,21.723-8.281,26.82-26.58
		c0.641-2.305,2.754-3.897,5.168-3.897c2.413,0,4.528,1.593,5.168,3.897c5.099,18.299,8.356,21.527,26.82,26.58
		c2.325,0.636,3.934,2.732,3.934,5.122s-1.609,4.485-3.934,5.123c-18.464,5.052-21.721,8.281-26.82,26.58
		C131.332,444.328,129.216,445.925,126.805,445.925z"/>
</g>
<path style="fill:#5A482E;" d="M276.097,139.239c0,2.873-2.351,5.224-5.224,5.224h-29.747c-2.873,0-5.224-2.351-5.224-5.224v-30.109
	c0-2.873,2.351-5.224,5.224-5.224h29.747c2.873,0,5.224,2.351,5.224,5.224V139.239z"/>
<path style="fill:#E3DAB3;" d="M276.097,139.239c0,2.873-2.351,5.224-5.224,5.224h-29.747c-2.873,0-5.224-2.351-5.224-5.224v-30.109
	c0-2.873,2.351-5.224,5.224-5.224h29.747c2.873,0,5.224,2.351,5.224,5.224V139.239z"/>
<path style="opacity:0.1;enable-background:new    ;" d="M257.599,139.239v-30.109c0-2.873,2.351-5.224,5.224-5.224h-21.698
	c-2.873,0-5.224,2.351-5.224,5.224v30.109c0,2.873,2.351,5.224,5.224,5.224h21.698C259.95,144.464,257.599,142.113,257.599,139.239z
	"/>
<path d="M136.593,46.562L57.025,1.036c-3.756-2.15-8.544-0.846-10.693,2.91s-0.846,8.544,2.91,10.693l79.569,45.526
	c1.228,0.702,2.565,1.037,3.885,1.037c2.719,0,5.362-1.417,6.81-3.947C141.653,53.5,140.35,48.712,136.593,46.562z"/>
<path d="M388.857,449.876c-18.531-5.072-20.185-6.709-25.295-25.043c-1.675-6.01-7.217-10.209-13.479-10.209
	c-6.267,0-11.81,4.2-13.479,10.209c-5.107,18.332-6.762,19.97-25.293,25.043c-6.058,1.658-10.289,7.183-10.289,13.436
	c0,6.253,4.231,11.778,10.289,13.435c18.53,5.072,20.185,6.71,25.292,25.04c1.672,6.012,7.214,10.212,13.48,10.212
	c6.261,0,11.804-4.197,13.479-10.208c5.111-18.335,6.765-19.974,25.297-25.045c6.052-1.657,10.279-7.183,10.279-13.434
	C399.138,457.058,394.911,451.534,388.857,449.876z M350.083,492.105c-5.485-17.369-11.464-23.355-28.859-28.794
	c17.394-5.438,23.374-11.424,28.859-28.792c5.486,17.369,11.466,23.357,28.86,28.792
	C361.547,468.748,355.57,474.735,350.083,492.105z"/>
<path d="M160.861,397.641c-15.79-4.322-16.988-5.507-21.339-21.119c-1.576-5.674-6.806-9.637-12.718-9.637
	c-5.912,0-11.143,3.962-12.717,9.632c-4.35,15.617-5.546,16.802-21.34,21.125c-5.715,1.564-9.705,6.779-9.705,12.681
	c0,5.899,3.989,11.115,9.706,12.682c3.442,0.941,5.986,1.725,8.008,2.465c4.063,1.487,8.565-0.601,10.053-4.665
	c1.488-4.065-0.601-8.565-4.665-10.053c-0.406-0.149-0.824-0.298-1.255-0.446c12.286-4.323,17.568-9.62,21.918-21.915
	c4.356,12.312,9.645,17.606,21.967,21.932c-12.334,4.329-17.623,9.632-21.982,21.975c-1.69-3.49-5.748-5.268-9.527-4.01
	c-4.106,1.369-6.326,5.806-4.958,9.912c0.545,1.635,1.111,3.52,1.782,5.926c1.578,5.675,6.807,9.637,12.718,9.637
	c5.911,0,11.141-3.962,12.716-9.633c4.353-15.62,5.549-16.805,21.345-21.126c5.709-1.566,9.698-6.78,9.698-12.681
	C170.563,404.421,166.574,399.206,160.861,397.641z"/>
<path d="M465.668,3.946c-2.149-3.756-6.937-5.06-10.693-2.91l-174.159,99.646c-2.398-2.817-5.962-4.612-9.943-4.612h-29.747
	c-3.981,0-7.545,1.795-9.942,4.612L159.58,59.713c-3.756-2.15-8.544-0.846-10.693,2.91c-2.149,3.756-0.846,8.544,2.91,10.693
	l76.269,43.639v22.283c0,1.021,0.13,2.01,0.352,2.964l-61.026,55.813c-3.92,3.586-6.169,8.681-6.169,13.979v153.729
	c0,5.242,2.208,10.299,6.057,13.875l75.688,70.336c3.548,3.298,8.177,5.114,13.032,5.114c4.857,0,9.484-1.817,13.031-5.114
	l75.686-70.334c3.851-3.577,6.061-8.635,6.061-13.877V211.995c0-5.292-2.248-10.385-6.17-13.979l-20.626-18.862
	c-3.195-2.92-8.153-2.699-11.072,0.494c-2.922,3.194-2.7,8.151,0.494,11.072l18.264,16.703l-31.82,10.357l-36.01-32.935v-32.543
	c0,0,7.367-0.019,7.533-0.025l21.135,19.329c3.194,2.919,8.149,2.699,11.072-0.494c2.922-3.194,2.7-8.15-0.494-11.072l-19.5-17.833
	c0.224-0.955,0.353-1.945,0.353-2.966v-22.283L462.76,14.641C466.514,12.491,467.816,7.703,465.668,3.946z M240.628,152.275
	c0.166,0.006,7.534,0.026,7.534,0.026v32.543l-35.894,32.83L180.356,207.4L240.628,152.275z M176.895,222.751l29.337,9.446v113.187
	l-29.337,9.548V222.751z M248.162,433.367l-67.86-63.061l31.682-10.311l36.177,33.619V433.367z M314.343,386.43l-50.509,46.937
	v-39.752l35.695-33.172l0.369-0.342l31.771,10.228L314.343,386.43z M290.091,230.098v63.519c0,4.328,3.508,7.837,7.837,7.837
	c4.328,0,7.837-3.509,7.837-7.837v-61.281l29.339-9.549v132.181l-29.339-9.445v-22.651c0-4.328-3.509-7.837-7.837-7.837
	c-4.329,0-7.837,3.509-7.837,7.837v24.945L255.999,379.5l-34.093-31.682v-117.72l34.093-31.181L290.091,230.098z M268.26,136.627
	h-24.523v-24.884h24.523V136.627z"/>
</svg>